<?xml version="1.0" encoding="utf-8"?>
<!-- Generator: Adobe Illustrator 16.0.0, SVG Export Plug-In . SVG Version: 6.00 Build 0)  -->
<!DOCTYPE svg PUBLIC "-//W3C//DTD SVG 1.1//EN" "http://www.w3.org/Graphics/SVG/1.1/DTD/svg11.dtd">
<svg version="1.1" id="Layer_1" xmlns="http://www.w3.org/2000/svg" xmlns:xlink="http://www.w3.org/1999/xlink" x="0px" y="0px"
	 width="119.759px" height="146.893px" viewBox="46.096 48.483 119.759 146.893"
	 enable-background="new 46.096 48.483 119.759 146.893" xml:space="preserve">
<g>
	<path d="M110.413,48.483c1.36,0,2.72,0,4.08,0c0.809,0.746,1.619,1.488,2.422,2.24c0.082,0.078,0.115,0.209,0.17,0.314
		c0.396,0.752,0.792,1.504,1.128,2.144c0.896-0.45,1.591-0.699,2.17-1.11c1.138-0.812,2.673-0.73,3.54,0.381
		c0.869,1.113,2.16,2.123,1.351,3.85c-0.035,0.074,0.054,0.207,0.107,0.388c1.087,0,2.161,0,3.235,0c1.111,0,2.222,0,3.22,0
		c0.235-0.612,0.35-1.132,0.62-1.551c0.271-0.421,0.735-0.712,1.051-1.109c0.94-1.183,2.19-1.487,3.479-0.699
		c1.224,0.749,2.129,1.765,2.095,3.328c0.826,0,1.564,0,2.28,0c0.475-1.931,1.929-3.374,3.396-3.437
		c1.708-0.074,2.799,0.951,3.725,3.5c1.524,0.039,1.524,0.039,2.062,2.322c1.456,0,2.933-0.004,4.409,0
		c1.991,0.006,2.498,0.505,2.499,2.457c0.001,6.039,0.001,12.078,0.002,18.117c0,0.418,0,0.836,0,1.292
		c1.394,0,2.593,0.008,3.792-0.002c1.451-0.012,1.741,0.202,1.878,1.679c0.079,0.85,0.014,1.711,0.014,2.566
		c0.123-0.09,0.245-0.18,0.368-0.27c0.783,0.347,1.565,0.693,2.349,1.04c0,3.2,0,6.399,0,9.6c-0.797,0.533-1.594,1.065-2.686,1.797
		c0,0.647-0.002,1.761,0.001,2.873c0.002,0.921-0.404,1.655-1.331,1.7c-1.832,0.088-3.672,0.021-5.508-0.016
		c-0.257-0.006-0.506-0.213-0.765-0.31c-0.484-0.182-0.971-0.5-1.459-0.503c-5.639-0.035-11.278-0.022-16.917-0.022
		c-1.895-0.001-2.538-0.61-2.787-2.484c-0.283-2.13-0.51-4.278-0.983-6.368c-0.523-2.314-1.388-4.54-3.563-5.869
		c-2.419-1.479-5.125-1.27-7.797-1.151c-0.161,0.007-0.374,0.17-0.461,0.319c-1.527,2.636-2.229,5.811,0.582,8.114
		c1.61,1.319,3.509,2.304,5.333,3.343c1.31,0.745,2.777,1.223,4.055,2.012c2.072,1.279,3.574,3.005,3.838,5.602
		c0.508,4.998,0.99,10.004,1.657,14.982c0.957,7.141,1.927,14.285,3.159,21.382c1.211,6.978,4.595,12.935,9.495,18.016
		c2.495,2.587,5.202,4.978,7.595,7.651c2.27,2.537,3.742,5.527,3.761,9.076c0.004,0.748-0.226,1.225-0.896,1.487
		c-1.22,0.476-2.411,1.126-3.677,1.366c-4.258,0.809-8.541,1.49-12.825,2.152c-0.406,0.063-0.994-0.241-1.316-0.559
		c-3.048-3.001-6.065-6.033-9.064-9.083c-0.344-0.352-0.629-0.836-0.755-1.31c-0.46-1.727-0.928-3.459-1.236-5.217
		c-1.115-6.38-3.832-12.155-6.687-17.888c0.052,0.379,0.143,0.749,0.277,1.103c2.819,7.391,5.609,14.787,6.72,22.688
		c0.145,1.032,0.465,2.113,0.995,2.998c0.669,1.118,1.641,2.054,2.472,3.076c1.221,1.503,2.433,3.013,3.855,4.774
		c-8.498,0.45-16.683,0.884-24.856,1.317c0.625,2.729,1.269,5.47,1.877,8.218c0.349,1.576-0.083,2.424-1.563,2.991
		c-5.641,2.161-11.297,2.087-16.94,0.013c-1.437-0.528-1.884-1.407-1.552-2.913c0.613-2.788,1.259-5.569,1.92-8.48
		c-0.669,0-1.34,0.024-2.008-0.004c-5.629-0.239-11.265-0.382-16.884-0.77c-4.333-0.3-8.667-0.768-12.96-1.423
		c-4.632-0.707-9.23-1.659-13.817-2.628c-1.927-0.406-1.937-0.702-1.638-2.657c0.643-4.195,2.8-7.577,5.625-10.587
		c2.871-3.058,5.956-5.926,8.693-9.097c4.141-4.796,6.078-10.669,7.407-16.741c2.317-10.59,3.123-21.367,3.85-32.15
		c0.218-3.238,1.43-5.856,4.402-7.451c0.807-0.433,1.619-0.856,2.43-1.281c2.008-1.054,4.117-1.954,5.998-3.199
		c1.963-1.3,2.984-3.262,2.783-5.736c-0.193-2.379-1.389-3.585-3.714-3.604c-0.718-0.007-1.436,0.088-2.154,0.118
		c-3.195,0.137-5.369,1.685-6.624,4.634c-1.129,2.652-1.443,5.46-1.652,8.275c-0.188,2.531-0.527,2.942-3.103,2.942
		c-5.08,0-10.159-0.015-15.238,0.011c-1.146,0.006-2.391-0.36-3.338,0.722c-0.145,0.165-0.527,0.165-0.801,0.168
		c-1.559,0.018-3.12,0.055-4.677,0.003c-1.249-0.041-1.662-0.535-1.679-1.821c-0.015-1.11-0.003-2.222-0.003-2.956
		c-1.042-0.559-1.833-0.982-2.625-1.405c0-2.72,0-5.44,0-8.16c0.076-0.304,0.227-0.61,0.215-0.91
		c-0.047-1.14,0.492-1.608,1.595-1.528c0.226,0.016,0.458-0.031,0.816-0.061c0-0.727,0-1.395,0-2.063
		c0-1.786,0.344-2.136,2.167-2.155c1.18-0.013,2.359-0.002,3.607-0.002c0-0.593,0-1.027,0-1.463c0-6.034,0-12.068,0.001-18.103
		c0-1.827,0.404-2.248,2.243-2.271c1.552-0.019,3.104-0.004,4.641-0.004c0.22-1.971,0.415-2.18,2.16-2.416
		c0.188-1.841,1.553-3.287,3.217-3.41c1.569-0.115,3.243,1.427,3.75,3.43c0.744,0,1.477,0,2.201,0
		c0.079-1.619,1.812-3.457,3.268-3.58c1.481-0.124,2.379,0.969,3.371,1.736c0.399,0.311,0.364,1.18,0.53,1.81
		c2.217,0,4.465,0,6.728,0c-0.307-1.781,0.627-3.907,1.979-4.717c2.039-1.221,3.092,0.869,4.736,1.27
		c0.642-0.456,1.362-0.975,1.471-2.045c0.033-0.332,0.523-0.633,0.833-0.916c0.157-0.145,0.545-0.213,0.547-0.321
		c0.019-1.027,0.83-1.143,1.525-1.399c1.28,0,2.56,0,3.84,0c0.403,0.552,0.715,1.45,1.227,1.586
		c1.245,0.327,1.507,1.096,1.445,2.168c1.212,0,2.338,0,3.508,0c-0.028-1.077,0.028-2.031,1.372-2.115
		c0.126-0.008,0.241-0.255,0.354-0.396C109.764,49.313,110.088,48.897,110.413,48.483z M112.037,92.911
		c0.201-1.484,0.387-2.863,0.576-4.26c-1.019,0-1.826,0-2.711,0c0,1.35,0,2.609,0,3.955C110.575,92.702,111.263,92.8,112.037,92.911
		z M102.073,92.591c-0.074-1.396-0.142-2.682-0.207-3.916c-0.952,0-1.716,0-2.61,0c0.223,1.484,0.427,2.837,0.639,4.243
		C100.662,92.803,101.287,92.708,102.073,92.591z"/>
</g>
</svg>
