<?xml version="1.0" encoding="utf-8"?>
<!-- Generator: Adobe Illustrator 16.0.0, SVG Export Plug-In . SVG Version: 6.00 Build 0)  -->
<!DOCTYPE svg PUBLIC "-//W3C//DTD SVG 1.1//EN" "http://www.w3.org/Graphics/SVG/1.1/DTD/svg11.dtd">
<svg version="1.1" id="Layer_1" xmlns="http://www.w3.org/2000/svg" xmlns:xlink="http://www.w3.org/1999/xlink" x="0px" y="0px"
	 width="375.252px" height="57.585px" viewBox="0 0 375.252 57.585" enable-background="new 0 0 375.252 57.585"
	 xml:space="preserve">
<g>
	<path fill="#FFFFFF" d="M101.753,55.577L79.016,23.174l-0.162,0.073l0.403,32.33H-37l0-53.284l114.806,0l23.06,33.483l0.162-0.145
		l-0.645-33.339h13.594v53.284H101.753z"/>
	<path fill="#FFFFFF" stroke="#FFFFFF" stroke-width="5" stroke-miterlimit="10" d="M129.796,21.656
		c-4.752,0-8.843-3.683-8.843-8.524c0-1.25,0.205-2.432,0.66-3.591c0.25-0.659,0.659-1.319,1.09-1.886
		c1.729-2.273,4.252-3.455,7.115-3.456c4.91,0,8.889,3.773,8.888,8.729C138.705,17.905,134.728,21.656,129.796,21.656z
		 M129.84,7.972c-2.751,0-4.591,2.274-4.591,4.91c0,2.682,1.84,5.001,4.637,5.001c2.705,0,4.523-2.364,4.523-4.933
		C134.409,10.336,132.591,7.972,129.84,7.972z"/>
	<rect x="151.106" y="23.318" fill="#FFFFFF" width="30.481" height="11.954"/>
	<polygon fill="#FFFFFF" points="151.038,2.292 151.106,14.246 182.164,14.246 182.164,2.292 	"/>
	<path fill="#FFFFFF" d="M216.931,50.825c-4.031,4.104-9.216,5.761-14.903,5.761c-5.545,0-11.449-1.584-15.339-5.688
		c-4.823-5.113-5.327-9.648-5.327-16.418V2.292h13.609v32.187c0,4.824,0.791,10.153,6.912,10.154c6.408,0,6.769-5.113,6.769-10.154
		L208.65,2.292l13.609,0v32.186C222.261,40.816,221.54,46.217,216.931,50.825z"/>
	<path fill="#FFFFFF" d="M245.779,14.246v41.331H232.17l-0.001-41.331l-10.513,0l-0.001-11.953h34.564v11.953H245.779z"/>
	<path fill="#FFFFFF" d="M291.115,50.825c-4.033,4.104-9.218,5.761-14.905,5.761c-5.544,0-11.449-1.585-15.337-5.688
		c-4.824-5.113-5.329-9.648-5.33-16.418l0.001-32.187h13.609v32.187c-0.001,4.824,0.791,10.153,6.913,10.153
		c6.407,0,6.768-5.112,6.768-10.153V2.293l13.609,0v32.187C296.443,40.816,295.725,46.216,291.115,50.825z"/>
	<path fill="#FFFFFF" d="M357.467,2.292h-14.042L337.7,19.375c-0.309-5.096-2.436-10.01-6.49-13.266
		c-4.608-3.672-10.8-3.816-16.417-3.816h-16.851l0.001,53.284h13.033V38.368h0.145l12.312,17.209h2.134l14.042,0l10.801-37.371
		h0.145l10.729,37.371l13.969,0L357.467,2.292z M315.8,29.079h-4.823V14.246h4.968c4.683,0,8.786,1.945,8.786,7.201
		C324.729,26.918,320.914,29.079,315.8,29.079z M324.513,37.432c3.556-0.578,6.461-2.202,8.642-4.493l-3.617,10.792L324.513,37.432z
		"/>
</g>
</svg>
